HIERARCHY
ROOT Hips
{
	OFFSET 0.000000 0.000000 0.000000
	CHANNELS 6 Xposition Yposition Zposition Yrotation Xrotation Zrotation
	JOINT Chest
	{
		OFFSET 0.000000 10.364816 -1.151646
		CHANNELS 3 Yrotation Xrotation Zrotation
		JOINT Chest2
		{
			OFFSET 0.000000 11.517722 -0.000000
			CHANNELS 3 Yrotation Xrotation Zrotation
			JOINT Chest3
			{
				OFFSET 0.000000 10.515804 -0.000996
				CHANNELS 3 Yrotation Xrotation Zrotation
				JOINT Chest4
				{
					OFFSET 0.000000 10.504063 -0.000998
					CHANNELS 3 Yrotation Xrotation Zrotation
					JOINT Neck
					{
						OFFSET 0.000000 14.700996 0.000000
						CHANNELS 3 Yrotation Xrotation Zrotation
						JOINT Head
						{
							OFFSET 0.000000 9.779655 0.002144
							CHANNELS 3 Yrotation Xrotation Zrotation
							End Site
							{
								OFFSET 0.000000 18.151802 0.000288
							}
						}
					}
					JOINT RightCollar
					{
						OFFSET -3.200323 8.241253 -0.000000
						CHANNELS 3 Yrotation Xrotation Zrotation
						JOINT RightShoulder
						{
							OFFSET -14.963747 0.000000 0.000000
							CHANNELS 3 Yrotation Xrotation Zrotation
							JOINT RightElbow
							{
								OFFSET -31.975845 0.000000 0.000000
								CHANNELS 3 Yrotation Xrotation Zrotation
								JOINT RightWrist
								{
									OFFSET -26.149033 0.000000 0.000000
									CHANNELS 3 Yrotation Xrotation Zrotation
									End Site
									{
										OFFSET -19.551819 0.000000 0.000000
									}
								}
							}
						}
					}
					JOINT LeftCollar
					{
						OFFSET 3.200323 8.241253 -0.000000
						CHANNELS 3 Yrotation Xrotation Zrotation
						JOINT LeftShoulder
						{
							OFFSET 14.963747 0.000000 0.000000
							CHANNELS 3 Yrotation Xrotation Zrotation
							JOINT LeftElbow
							{
								OFFSET 31.975845 0.000000 0.000000
								CHANNELS 3 Yrotation Xrotation Zrotation
								JOINT LeftWrist
								{
									OFFSET 26.149033 0.000000 0.000000
									CHANNELS 3 Yrotation Xrotation Zrotation
									End Site
									{
										OFFSET 19.551819 0.000000 0.000000
									}
								}
							}
						}
					}
				}
			}
		}
	}
	JOINT RightHip
	{
		OFFSET -8.525852 0.003604 -0.000400
		CHANNELS 3 Yrotation Xrotation Zrotation
		JOINT RightKnee
		{
			OFFSET 0.000000 -44.087433 -0.000236
			CHANNELS 3 Yrotation Xrotation Zrotation
			JOINT RightAnkle
			{
				OFFSET 0.000000 -43.085331 -0.000397
				CHANNELS 3 Yrotation Xrotation Zrotation
				JOINT RightToe
				{
					OFFSET 0.000000 -7.938347 18.057957
					CHANNELS 3 Yrotation Xrotation Zrotation
					End Site
					{
						OFFSET 0.000000 -1.698112 7.444336
					}
				}
			}
		}
	}
	JOINT LeftHip
	{
		OFFSET 8.525852 0.001277 -0.000142
		CHANNELS 3 Yrotation Xrotation Zrotation
		JOINT LeftKnee
		{
			OFFSET 0.000000 -44.087433 -0.000236
			CHANNELS 3 Yrotation Xrotation Zrotation
			JOINT LeftAnkle
			{
				OFFSET 0.000000 -43.085323 -0.000397
				CHANNELS 3 Yrotation Xrotation Zrotation
				JOINT LeftToe
				{
					OFFSET 0.000000 -7.938347 18.057957
					CHANNELS 3 Yrotation Xrotation Zrotation
					End Site
					{
						OFFSET 0.000000 -1.698112 7.444336
					}
				}
			}
		}
	}
}
MOTION
Frames: 7
Frame Time: 0.004184
0.000000 96.505127 0.000000 -5.221816 2.821259 -0.067004 0.351098 -1.758765 0.043583 0.154073 -6.607981 0.020835 0.153063 -0.787572 0.036477 0.117654 5.246016 0.027679 0.182523 15.364869 0.681356 0.088162 -7.493242 1.205232 -0.271010 -0.875809 10.311058 -1.333436 -3.396117 78.725102 1.220407 16.069115 1.138739 -3.469377 4.915167 -0.584293 0.024204 -1.640678 -9.083995 2.775943 -3.406472 -78.650666 -5.670516 19.218508 -2.505651 4.861060 -5.498224 -3.570332 -2.231302 0.513024 -0.739485 0.995509 4.354216 -0.016573 -2.529713 -8.182519 0.816910 0.000000 0.000001 -0.000000 0.958789 -0.214042 0.926868 -0.254792 5.454094 -0.036793 0.322255 -8.468033 -2.173916 -0.000000 -0.000001 0.000000
0.000486 96.504875 -0.002411 -5.221771 2.814496 -0.062285 0.352008 -1.755883 0.040935 0.154590 -6.606702 0.019652 0.153573 -0.786291 0.035346 0.117950 5.246974 0.026828 0.180667 15.360378 0.682979 0.084056 -7.501553 1.208974 -0.273150 -0.876466 10.306896 -1.333661 -3.396564 78.729139 1.219008 16.069152 1.138791 -3.470367 4.915894 -0.584036 0.023474 -1.640637 -9.077175 2.776749 -3.407013 -78.657442 -5.673379 19.218365 -2.508895 4.860481 -5.498106 -3.569680 -2.237462 0.515002 -0.742894 1.007352 4.360805 -0.018924 -2.534542 -8.187395 0.816139 0.000000 0.000003 -0.000001 0.954679 -0.211290 0.919306 -0.248468 5.459620 -0.031094 0.321208 -8.470421 -2.175951 0.000000 -0.000002 -0.000000
0.000984 96.504623 -0.004783 -5.221834 2.807665 -0.057477 0.353037 -1.753000 0.038228 0.155159 -6.605424 0.018442 0.154139 -0.785013 0.034195 0.118285 5.247932 0.025962 0.178895 15.356120 0.684579 0.080117 -7.509437 1.212642 -0.275372 -0.877127 10.302693 -1.333846 -3.396979 78.733257 1.217577 16.069231 1.138871 -3.471402 4.916679 -0.583719 0.022694 -1.640652 -9.070216 2.777574 -3.407594 -78.664252 -5.676310 19.218233 -2.512179 4.859891 -5.497994 -3.568998 -2.243737 0.517061 -0.746423 1.019335 4.367353 -0.021256 -2.539276 -8.192300 0.815340 0.000001 -0.000000 -0.000001 0.950355 -0.208567 0.911597 -0.241964 5.465381 -0.025321 0.320324 -8.472925 -2.178023 -0.000000 0.000004 -0.000000
0.001489 96.504356 -0.007148 -5.221953 2.800808 -0.052621 0.354130 -1.750114 0.035491 0.155757 -6.604144 0.017220 0.154736 -0.783733 0.033033 0.118642 5.248892 0.025087 0.177166 15.351979 0.686167 0.076262 -7.517100 1.216274 -0.277635 -0.877791 10.298464 -1.334010 -3.397382 78.737410 1.216129 16.069337 1.138963 -3.472458 4.917501 -0.583373 0.021892 -1.640694 -9.063187 2.778411 -3.408191 -78.671061 -5.679279 19.218127 -2.515481 4.859303 -5.497886 -3.568297 -2.250068 0.519161 -0.750014 1.031388 4.373872 -0.023577 -2.543961 -8.197216 0.814525 0.000002 -0.000002 -0.000000 0.945924 -0.205862 0.903814 -0.235370 5.471260 -0.019511 0.319516 -8.475486 -2.180110 -0.000000 -0.000001 0.000000
0.001994 96.504089 -0.009517 -5.222070 2.793946 -0.047765 0.355223 -1.747228 0.032755 0.156356 -6.602863 0.015998 0.155330 -0.782454 0.031872 0.118997 5.249852 0.024213 0.175436 15.347841 0.687754 0.072405 -7.524772 1.219903 -0.279901 -0.878454 10.294233 -1.334174 -3.397792 78.741563 1.214681 16.069442 1.139056 -3.473514 4.918323 -0.583027 0.021090 -1.640735 -9.056158 2.779246 -3.408783 -78.677878 -5.682242 19.218004 -2.518784 4.858720 -5.497785 -3.567598 -2.256397 0.521261 -0.753605 1.043439 4.380396 -0.025897 -2.548648 -8.202127 0.813711 0.000002 -0.000001 0.000000 0.941494 -0.203155 0.896029 -0.228777 5.477142 -0.013701 0.318711 -8.478054 -2.182196 -0.000000 0.000001 -0.000000
0.002493 96.503845 -0.011894 -5.222137 2.787117 -0.042956 0.356251 -1.744343 0.030048 0.156925 -6.601581 0.014789 0.155897 -0.781171 0.030721 0.119331 5.250814 0.023347 0.173666 15.343583 0.689354 0.068464 -7.532652 1.223571 -0.282121 -0.879115 10.290030 -1.334358 -3.398212 78.745688 1.213248 16.069524 1.139135 -3.474549 4.919110 -0.582712 0.020311 -1.640750 -9.049203 2.780072 -3.409365 -78.684688 -5.685173 19.217886 -2.522066 4.858133 -5.497680 -3.566917 -2.262675 0.523319 -0.757138 1.055422 4.386940 -0.028223 -2.553382 -8.207032 0.812912 -0.000003 0.000001 0.000000 0.937170 -0.200436 0.888316 -0.222272 5.482900 -0.007926 0.317826 -8.480557 -2.184268 0.000000 0.000001 -0.000000
0.002979 96.503586 -0.014293 -5.222094 2.780354 -0.038238 0.357159 -1.741461 0.027401 0.157442 -6.600303 0.013605 0.156408 -0.779892 0.029590 0.119627 5.251773 0.022495 0.171807 15.339090 0.690975 0.064355 -7.540962 1.227316 -0.284258 -0.879772 10.285873 -1.334583 -3.398659 78.749725 1.211849 16.069560 1.139187 -3.475539 4.919838 -0.582453 0.019578 -1.640709 -9.042381 2.780878 -3.409907 -78.691456 -5.688042 19.217733 -2.525312 4.857551 -5.497559 -3.566264 -2.268833 0.525291 -0.760551 1.067264 4.393535 -0.030565 -2.558214 -8.211907 0.812142 -0.000000 -0.000003 0.000001 0.933062 -0.197688 0.880750 -0.215944 5.488422 -0.002222 0.316780 -8.482938 -2.186304 -0.000001 0.000001 -0.000000
